<svg width="30" height="30" viewBox="0 0 30 30" xmlns="http://www.w3.org/2000/svg">
<circle cx="15" cy="15" r="14" fill="#15803d" stroke="#15803d" stroke-width="2"/>
<g clip-path="url(#clip0_66_10)">
<path 
	d="M8.00004 7C7.52192 7 7.11254 7.3375 7.01879 7.80313L5.01879 17.8031C4.95941 18.0969 5.03754 18.4 5.22504 18.6344C5.41254 18.8687 5.70004 19 6.00004 19H14V21H12C11.4469 21 11 21.4469 11 22C11 22.5531 11.4469 23 12 23H18C18.5532 23 19 22.5531 19 22C19 21.4469 18.5532 21 18 21H16V19H24C24.3 19 24.5844 18.8656 24.7719 18.6344C24.9594 18.4031 25.0375 18.0969 24.9782 17.8031L22.9782 7.80313C22.8875 7.3375 22.4782 7 22 7H8.00004ZM8.16879 12.25L8.81879 9H11.6438L11.3219 12.25H8.16879ZM7.86879 13.75H11.1719L10.8469 17H7.21879L7.86879 13.75V13.75ZM12.6782 13.75H17.3219L17.6469 17H12.3532L12.6782 13.75ZM18.8282 13.75H22.1313L22.7813 17H19.1563L18.8282 13.75ZM21.8282 12.25H18.6782L18.3532 9H21.1782L21.8282 12.25ZM17.1688 12.25H12.825L13.1532 9H16.8469L17.1719 12.25H17.1688Z" 
	fill="white"
/>
</g>
<defs>
<clipPath id="clip0_66_10">
<rect width="20" height="20" fill="white" transform="translate(5 5)"/>
</clipPath>
</defs>
</svg>
